<?xml version="1.0" encoding="UTF-8" standalone="no"?>
<svg id="Layer_1" viewBox="0 0 177.14 490.51" xmlns="http://www.w3.org/2000/svg" data-name="Layer 1">
 <defs>
  <style>.cls-1{fill:#999b9e;}.cls-2{fill:#fff;}</style>
 </defs>
 <path transform="translate(-209.43 -175.75)" class="cls-1" d="m386.57 264.31a88.57 88.57 0 1 0 -88.57 88.57c1.17 0 2.33 0 3.49-0.07-0.33 0.6-0.73 1.38-1.19 2.33l-11.66 11.66h6.93a141.88 141.88 0 0 0 -5.81 23.83c-3.56 22.79-3.76 59.37 15.6 103.94 36.51 84.26-3.39 169.69-3.8 170.54l2.39 1.14c0.41-0.86 40.83-87.35 3.83-172.73-25.78-59.52-16.87-104.97-9.32-126.72h19.81l-13.85-13.8c0.1-0.16 0.15-0.26 0.17-0.28a88.58 88.58 0 0 0 81.98 -88.41z"/>
 <ellipse cy="68.92" cx="66.69" rx="7.65" class="cls-2" ry="18.51"/>
 <ellipse cy="68.92" cx="106.47" rx="7.65" class="cls-2" ry="18.51"/>
 <path transform="translate(-209.43 -175.75)" class="cls-2" d="m298 322.2a58.46 58.46 0 0 1 -58.38 -58.39 1.32 1.32 0 0 1 2.64 0 55.74 55.74 0 0 0 111.48 0 1.32 1.32 0 0 1 2.64 0 58.46 58.46 0 0 1 -58.38 58.39z"/>
</svg>
