<svg id="Layer_1" data-name="Layer 1" xmlns="http://www.w3.org/2000/svg" viewBox="0 0 177.14 490.51"><defs><style>.cls-1{fill:#999b9e;}.cls-2{fill:#fff;}</style></defs><path class="cls-1" d="M386.57,264.31A88.57,88.57,0,1,0,298,352.88c1.17,0,2.33,0,3.49-.07-.33.6-.73,1.38-1.19,2.33L288.64,366.8h6.93a141.88,141.88,0,0,0-5.81,23.83C286.2,413.42,286,450,305.36,494.57c36.51,84.26-3.39,169.69-3.8,170.54l2.39,1.14c.41-.86,40.83-87.35,3.83-172.73C282,434,290.91,388.55,298.46,366.8h19.81L304.42,353c.1-.16.15-.26.17-.28l0,0A88.58,88.58,0,0,0,386.57,264.31Z" transform="translate(-209.43 -175.75)"/><ellipse class="cls-2" cx="66.69" cy="68.92" rx="7.65" ry="18.51"/><ellipse class="cls-2" cx="106.47" cy="68.92" rx="7.65" ry="18.51"/><path class="cls-2" d="M298,322.2a58.46,58.46,0,0,1-58.38-58.39,1.32,1.32,0,0,1,2.64,0,55.74,55.74,0,0,0,111.48,0,1.32,1.32,0,0,1,2.64,0A58.46,58.46,0,0,1,298,322.2Z" transform="translate(-209.43 -175.75)"/></svg>