<svg viewBox="0 0 156 149"
  xmlns="http://www.w3.org/2000/svg">
  <g fill-rule="evenodd">
    <path d="M74 49.9267016L74 49.5366492 74 0 24.7958115 49.5366492 0 49.5366492 0 99.4633508 24.7958115 99.4633508 74 149 74 99.4633508 74 99.0732984z"/>
    <g fill-rule="nonzero">
      <path d="M12.3553398,95.6666667 L0,83.2467904 C6.14563107,77.0749141 9.52427184,68.8769759 9.52427184,60.1637388 C9.52427184,51.4622131 6.14563107,43.2584192 0,37.0982543 L12.3553398,24.6666667 C21.7980583,34.1587079 27,46.76011 27,60.1695945 C27,73.579079 21.7980583,86.1746254 12.3553398,95.6666667 Z" transform="translate(96.000000, 15.333333)"/>
      <path d="M35.329458,119.666667 L23,107.334278 C35.6142969,94.7229277 42.5608798,77.9736602 42.5608798,60.1666667 C42.5608798,42.3596731 35.6142969,25.6104057 23,12.9990558 L35.329458,0.666666667 C51.2339356,16.5674285 60,37.6987042 60,60.1666667 C60,82.6346292 51.2339356,103.765905 35.329458,119.666667 Z" transform="translate(96.000000, 15.333333)"/>
    </g>
  </g>
</svg>