<svg xmlns="http://www.w3.org/2000/svg" viewBox="0 0 469.3 469.3">
    <path d="M160 0h-21.3c-6 0-10.7 4.8-10.7 10.7V128H10.7c-6 0-10.7 4.8-10.7 10.7V160c0 5.9 4.8 10.7 10.7 10.7H160c5.9 0 10.7-4.8 10.7-10.7V10.7c0-6-4.8-10.7-10.7-10.7zM458.7 128H341.3V10.7c0-6-4.7-10.7-10.6-10.7h-21.4c-5.9 0-10.6 4.8-10.6 10.7V160c0 5.9 4.7 10.7 10.6 10.7h149.4c5.9 0 10.6-4.8 10.6-10.7v-21.3c0-6-4.7-10.7-10.6-10.7zM458.7 298.7H309.3c-5.9 0-10.6 4.7-10.6 10.6v149.4c0 5.9 4.7 10.6 10.6 10.6h21.4c5.9 0 10.6-4.7 10.6-10.6V341.3h117.4c5.9 0 10.6-4.7 10.6-10.6v-21.4c0-5.9-4.7-10.6-10.6-10.6zM160 298.7H10.7c-6 0-10.7 4.7-10.7 10.6v21.4c0 5.9 4.8 10.6 10.7 10.6H128v117.4c0 5.9 4.8 10.6 10.7 10.6H160c5.9 0 10.7-4.7 10.7-10.6V309.3c0-5.9-4.8-10.6-10.7-10.6z"/>
</svg>