<?xml version="1.0" encoding="utf-8"?>
<!-- Generator: Adobe Illustrator 24.3.0, SVG Export Plug-In . SVG Version: 6.00 Build 0)  -->
<svg version="1.1" id="Layer_1" xmlns="http://www.w3.org/2000/svg" xmlns:xlink="http://www.w3.org/1999/xlink" x="0px" y="0px"
	 viewBox="0 0 1060 500" style="enable-background:new 0 0 1060 500;" xml:space="preserve">
<path d="M535.4,120c-18.6,0-35.2,3.5-49.9,10.4c-14.7,7-27.2,16.3-37.4,28.2c-10.2,11.8-18,25.6-23.5,41.4
	c-5.4,15.8-8.2,32.5-8.2,50.1c0,17.9,2.7,34.7,8.2,50.4c5.4,15.8,13.3,29.6,23.5,41.4c10.2,11.8,22.7,21.2,37.4,28
	c14.7,6.8,31.4,10.3,49.9,10.3c15.1,0,28.4-2.6,40-7.7c11.6-5.1,23.2-14.3,34.8-27.5l4.4,29.2h30V243.5H540.4v33h64.5
	c-0.2,10.4-1.9,19.9-4.9,28.5c-3,8.6-7.5,15.8-13.4,21.7c-5.9,5.9-13.2,10.4-21.7,13.6c-8,2.9-17.1,4.4-27.3,4.4c-0.8,0-1.5,0-2.3,0
	c-13.2,0-24.6-2.7-34.3-8c-9.6-5.3-17.5-12.5-23.5-21.4c-6-8.9-10.5-19.1-13.4-30.4c-2.9-11.4-4.3-23-4.3-34.8
	c0-11.8,1.4-23.4,4.3-34.8c2.9-11.4,7.4-21.5,13.4-30.4c6-8.9,13.8-16.1,23.5-21.4c9.6-5.3,21-8,34.3-8c7.9,0,15.4,1,22.6,3.1
	c7.2,2.1,13.7,5.2,19.5,9.4c5.8,4.2,10.6,9.3,14.4,15.5c3.8,6.1,6.3,13.3,7.5,21.4h42.4c-1.6-13.9-5.6-26.2-11.8-36.9
	c-6.3-10.7-14.1-19.5-23.6-26.6c-9.5-7.1-20.3-12.4-32.5-16C561.6,121.8,548.8,120,535.4,120"/>
</svg>
