<?xml version="1.0" encoding="UTF-8"?>
<svg width="229px" height="261px" viewBox="0 0 229 261" version="1.1" xmlns="http://www.w3.org/2000/svg" xmlns:xlink="http://www.w3.org/1999/xlink">
    <!-- Generator: Sketch 63.1 (92452) - https://sketch.com -->
    <title>G</title>
    <desc>Created with Sketch.</desc>
    <g id="Page-1" stroke="none" stroke-width="1" fill="none" fill-rule="evenodd">
        <g id="G" fill="#000000" fill-rule="nonzero">
            <path d="M119.4,0 C100.8,0 84.2,3.5 69.5,10.4 C54.8,17.4 42.3,26.7 32.1,38.6 C21.9,50.4 14.1,64.2 8.6,80 C3.2,95.8 0.4,112.5 0.4,130.1 C0.4,148 3.1,164.8 8.6,180.5 C14,196.3 21.9,210.1 32.1,221.9 C42.3,233.7 54.8,243.1 69.5,249.9 C84.2,256.7 100.9,260.2 119.4,260.2 C134.5,260.2 147.8,257.6 159.4,252.5 C171,247.4 182.6,238.2 194.2,225 L198.6,254.2 L228.6,254.2 L228.6,123.5 L124.4,123.5 L124.4,156.5 L188.9,156.5 C188.7,166.9 187,176.4 184,185 C181,193.6 176.5,200.8 170.6,206.7 C164.7,212.6 157.4,217.1 148.9,220.3 C140.9,223.2 131.8,224.7 121.6,224.7 C120.8,224.7 120.1,224.7 119.3,224.7 C106.1,224.7 94.7,222 85,216.7 C75.4,211.4 67.5,204.2 61.5,195.3 C55.5,186.4 51,176.2 48.1,164.9 C45.2,153.5 43.8,141.9 43.8,130.1 C43.8,118.3 45.2,106.7 48.1,95.3 C51,83.9 55.5,73.8 61.5,64.9 C67.5,56 75.3,48.8 85,43.5 C94.6,38.2 106,35.5 119.3,35.5 C127.2,35.5 134.7,36.5 141.9,38.6 C149.1,40.7 155.6,43.8 161.4,48 C167.2,52.2 172,57.3 175.8,63.5 C179.6,69.6 182.1,76.8 183.3,84.9 L225.7,84.9 C224.1,71 220.1,58.7 213.9,48 C207.6,37.3 199.8,28.5 190.3,21.4 C180.8,14.3 170,9 157.8,5.4 C145.6,1.8 132.8,0 119.4,0" id="Path"></path>
        </g>
    </g>
</svg>