<svg viewBox="0 0 1133.9 1133.9">
  <path d="m1130 508.2c-1-9.3-2.6-18.7-5.1-27.7-4.6-16.8-9.4-33.5-10.2-51.1-.3-7.8-.9-15.6-1.6-23.3-1.1-12.7-2.2-25.4-3.6-38-1.3-11.7-3-23.2-9.3-33.5-2.6-4.2-4.6-8.7-6.4-13.3-4.7-11.9-10.8-22.9-18.4-33.2-8-10.8-15.7-21.8-23.4-32.9-6.8-9.8-14.3-18.9-23.3-26.8-6.3-5.5-12.6-11-18.9-16.6-1.4-1.2-2.9-2.5-3.7-4-2.4-5.3-6.1-9.5-10.3-13.5-2.6-2.5-5.4-5.1-7.2-8.3-4.7-8.1-8.9-16.5-13.1-24.9s-8.1-17-12.1-25.5c-1.6-3.5-3.3-6.9-4.8-10.4-3.2-7.3-6.3-14.7-9.5-22-.6-1.2-1.7-2.2-2.8-3.2-4.6-4.3-9.4-8.4-14-12.7-12.4-11.6-27.2-19.5-42-27.3-7.5-3.9-16.1-5.5-24.3-8-3.4-1-7-1.6-10.5-2.4 0-.3 0-.6 0-.9 2.4-.8-22.5-10.8-33.7-13.7-18.3-4.7-36.7-9.1-55.9-7.8-8.1.6-16.3-.1-24.5.5-6.7.5-13.9-1-20.1 3.2-.4.3-1.2.1-1.8.2-4.7.4-9.3.8-14 1.3-10.1 1.1-20.3 2-30.4 3.6-8.8 1.4-17.5 3.6-26.3 5.4-3.2.7-6.4 1.6-9.6 1.6-8.6 0-17.1-.5-25.6-.8-2.8-.1-5.7-.2-8.5-.9-12.3-2.6-23.7-7.1-34.2-14.2-4.4-3-9.5-4.4-15-4.8-3.8-.3-7.6-1.2-11.3-2.3-4.9-1.4-15.6 1.1-17.8.9-7.1-.7-14.2-1.3-21.3-2-17-1.9-33.3 2.3-49.7 5.7-11.5 2.4-22.8 4.3-34.5 4.2-2 0-4.1-.1-6.1.3-15.4 3.3-30.7 6.4-46 10.1-18.1 4.3-35.3 11.2-51.9 19.6-6 3.1-11.5 7.1-17.3 10.5-6.3 3.7-12.9 6.9-19.1 10.9-7 4.5-13.7 9.7-20.6 14.4-5.2 3.6-10.8 6.7-15.7 10.6-7.2 5.7-13.7 12.2-20.8 18-10.4 8.5-21.2 16.6-31.7 25.1-8.5 7-17 14.1-23.7 23-2 2.7-4.8 5.1-7.8 6.8-6.4 3.5-11.6 7.2-14.4 14.7-3 8.1-10.1 13.1-17.3 17.6-1.2.8-3.2 1.4-3.4 2.5-1 4.5-5.1 5.5-7.9 7.9s-5.9 4.3-5.2 8.9c.3 1.9-.7 4.4-1.8 6.2-3 4.9-6.2 9.6-9.7 14.1-2.3 3-4.2 5.9-3.7 9.9.1 1.1-.9 2.4-1.5 3.6s-1.6 2.3-2 3.6c-1.7 5.5-3.1 11-4.8 16.5-2.2 7.2-3.9 14.5-8.4 20.9-2.8 4.1-4.6 9.1-6.3 13.8-3.2 8.9-5.2 18.2-9.1 26.8-5.1 11.2-11.3 21.8-17.2 32.5-4.7 8.6-8.8 17.4-10.3 27.2-2.2 14.1-4.8 28.2-8.6 42-1.3 4.7-2.7 9.5-3.8 14.3-2.2 9.5-4.4 19.1-6.1 28.7-1 5.4-1.2 10.9-1.4 16.4-.1 3.8.3 7.7.4 11.5.3 11.3-4.3 21.6-6.8 32.3-2.4 10-5.3 19.8-5.4 30.1 0 2.3-.2 4.5-.7 6.7-2 9-1.1 18.1 1 26.8 2.9 11.6 3.9 23.4 5.2 35.2 1.8 16.1 4 32.1 9.4 47.6 2.9 8.3 4.9 16.9 6.4 25.5 2.3 13.3 4.6 26.6 8.8 39.4 3 9.1 8 16.9 13.3 24.7 4.9 7.2 9.8 14.5 14.2 22 7.2 12.3 13.9 25 20.9 37.4 1.7 3 4.1 5.7 5.7 8.7 3.4 6.2 6.5 12.2 11.6 17.6 6.3 6.7 10.7 15.3 14.4 24 4.8 11.1 9.9 22.3 19.8 30.1.8.6 1.5 1.5 1.8 2.4 2.3 5.9 4.6 11.8 6.9 17.7.5 1.3.8 2.9 1.7 3.9 6.3 7.5 11.7 15.8 19.4 22 4.1 3.3 7.9 7.1 12 10.4 4 3.2 7 7.7 12.5 9.3 2.7.8 4.9 3.5 7.2 5.5 2.4 2.1 4.5 4.6 7 6.6 3.5 2.8 7.2 5.3 10.8 8 9.1 7 18.7 13 29.1 17.7 8.3 3.7 16.7 7.4 25 11.2 1.5.7 2.8 1.6 4.2 2.4 2.8 1.6 5.5 3.3 8.4 4.6 11.7 5.2 23.4 10.4 35.2 15.4 11.8 5.1 23.3 10.9 35.9 13.8 3.8.9 7.5 1.9 11.2 3.1 9.9 3.1 19.7 6.5 29.7 9.4 8.4 2.4 17.1 3.8 25.4 6.6 9.5 3.2 19.4 3.6 29.2 4.9.6.1 1.2 0 1.8-.1 10.4-.6 20.8-1.2 31.1-1.9 6.6-.4 13.3-1.6 19.9-1.4 10.5.2 21 1.2 31.4 1.8 2.8.2 6-.8 8.4.2 8 3.2 16.6 4.2 24.6 8.3 10.5 5.5 22.6 7 34.6 5.3 8.4-1.2 16.8-2.7 25.4-1.7 1.2.1 2.7.1 3.5-.6 3.9-3 8.7-2.7 13.1-3.9 3-.8 5.9-1.2 8.8-.5 7.6 2 14.8 0 22-2.2 4.5-1.4 8.8-3.3 13.3-4.3 12.3-2.6 23.7-7.3 34.8-12.8 6.5-3.2 13-6.7 19.8-9.4 15.1-6.1 30.4-11.4 45.4-17.6 9.1-3.8 17.8-8.9 26.6-13.4 3.4-1.8 6.9-3.4 10.3-5.2 2.7-1.4 5.1-3.4 7.9-4.4 8.3-3 16.8-4.5 25.6-5.3 9.7-.9 19.5-2.2 28.5-6.5 15.5-7.4 30.5-15.7 44-26.4 11.8-9.3 23.2-19.2 33.7-30.2 11.3-11.9 21.9-24.2 30.7-38.2 4.4-7 8.6-14.3 13.6-21 6.3-8.5 11.5-17.3 15.2-27.2 2-5.3 4.9-10.3 7.6-15.3 6-11.3 12-22.7 18.1-33.9 5-9.1 10.1-18.2 15.4-27.2 4.7-8 9.3-15.8 9.4-25.5.1-7.6.5-15.2 3.5-22.4 1.9-4.7 3.9-9.5 6-14.1 6.2-13.6 12.2-27.2 18.7-40.7 3.9-8.1 8.8-15.7 12.8-23.8 9-17.8 15.6-36.1 12.7-56.6-1.2-8.4-.5-16.7 1-25 .9-5 1.3-10.2 1.6-15.3 2-24.4 3.4-49.3.7-74.1zm-481.7-26.9c.7-16.6 1.2-33.2 2.2-49.8.7-11.4 1.9-22.9 3.5-34.2 1.2-8.5 3.5-16.7 5-25.2 2.1-12.1 4.1-24.2 5.8-36.4 2.5-18.5 5.5-36.9 12.5-54.3 2.5-6.3 4.9-12.6 7.3-18.9.4-1.1.9-2.3 1.1-3.5.8-6.3 2.2-7.6 8.3-7.2.6 0 1.2-.2 1.4-.2 1.5-3.4 2.9-6.5 4.3-9.6.3-.7.7-1.9 1.3-2 5-1.1 6-6.3 9.5-9.2 1.8.4 3.5.9 5.3 1.1 1.2.1 3.1.3 3.4-.2 1.6-3.3 3.8-1.2 6-1.3 3.7-.2 6.6.5 9.7 2.3 1.6.9 4.3.2 6.5 0 5-.3 9.2.6 11.9 5.5 1 1.8 3.1 3.4 5 4.1 3 1.1 4.3 2.3 4.8 5.9.9 6.6 3.7 12.9 4.7 19.5 2 13.3 5.8 26.4 4.4 40.2-.9 9.4-.7 18.8-.9 28.2 0 1.8.1 3.7.4 5.5 3.1 15.6 4.2 31.4 3.1 47.2-.4 5.6 1.9 10.6 1.6 16-.4 8.4-1 16.8-.6 25.2.4 9.1-2.3 17.6-3.5 26.4-.7 4.7-.5 9.6-1.8 14.3-2.2 7.9-3.9 15.9-6.4 23.6-2.6 8.1-5.8 16.1-8.9 24.1-2.5 6.7-4.8 13.5-7.9 19.9-5.8 11.9-12.1 23.6-18.5 35.2-1.4 2.6-3.2 5.2-6.5 6-1.5.4-2.7 1.8-4.5 3 .7.9 1.3 1.5 1.9 2.2-1 2.8-3.3 2.4-5 1.5-4.9-2.6-10.3-.6-15.2-2.2-2-.7-4.4-1-5.9-2.2-2.8-2.3-5.7-4-9.1-5.5-4.8-2.3-9.1-6-13.2-9.7-5.4-4.9-8.5-11.1-9.5-18.7-.7-5.2-2.7-10.3-4.8-15.1-3.1-7.2-5-14.7-5.7-22.5-.8-9.5-3.4-19.1-3-29zm-232.8-47.6c2.1-21 5.7-41.7 9.4-62.5.1-.8.8-1.8.5-2.3-3.1-5.2-.6-10.4.1-15.6 1.3-10.6 2.6-21.2 4.3-31.7 1.4-8.9 2.8-17.9 5.2-26.5 2.8-9.9 4.5-19.9 4.9-30.2.2-5.5.7-11 3.3-16.2.7-1.4.7-3.1.9-4.1 3.4-2.1 6.1-3.8 9-5.6 5.8 1.3 5.8 1.3 7.8-2.9.4-.1.8-.5 1.1-.4 6.6 3.1 12.6-1 18.8-1.4 1.4-.1 3-.7 4.1-.2 4.3 1.9 8.7 1.8 13 .7 3.9-1 6.3.7 8.3 3.4 5.5 7.6 11.2 15.2 16.2 23.1 2 3.1 2.9 7.2 3.6 10.9 1.4 7.4 2.4 14.9 3.3 22.4 1.2 9.9 1.9 19.9 3.1 29.9.8 6.6.3 13.4 2.4 20 1.4 4.4 1.1 9.3 1.4 14 .5 10 .8 20 1.3 30.1 0 1 0 2.2.5 3 3 5.9 3.1 12.2 3.1 18.5.1 6.5 1.2 13.1.7 19.6-.9 10.8-2.9 21.5-4.2 32.3-1.1 9.3-1.6 18.8-2.8 28.1-1.8 13.9-5.2 27.3-10.3 40.3-3.6 9.3-6.6 18.9-9.9 28.4-4.1 11.9-11.7 21.1-22.4 27.3-3 1.7-7.4 1.3-11.2 1.5-2.7.1-5.2.2-7.5 1.9-2.2 1.6-4.5 1.4-6.9.2-2.1-1-4.4-1.6-7-1.7-1.2-1.3-2.4-2.8-3.7-4-.9-.8-2.7-1.8-3.2-1.5-3.6 2.5-4.9-.9-7.1-2.3-6.3-3.9-10.7-9.7-15.8-14.9-5.8-5.9-8.6-13.4-9.9-21.4-3.5-21.6-3.5-43.3-2-65 .3-4.2.1-8.7-.8-12.8-2.7-10.8-2.7-21.5-1.6-32.4zm588.7 209.9c-.4 1.7-.6 3.9-1.7 4.7-5.7 4.4-11.9 7.2-19.4 7.4-13.1.4-25.6-1.2-37.4-7.4-3-1.6-7.1-1-10.8-1.5-.9 3.7-1.6 7-2.7 11.4 3.1-1.4 4.8-2.2 7.2-3.2-.2 1.4-.1 2.5-.4 3.5-2 7.8-5.5 15.1-5.8 23.6-.3 6.8-2.4 13.6-4 20.3s-2.3 13.4-2.5 20.2c0 .4.3.9.2 1.2-4 9.9-3.9 21-8.5 30.7-1.3 2.8-3.6 5.5-2.5 9.1.1.3-.2.8-.4 1.1-4.8 4.4-5.3 10.9-7.9 16.4-1.4 3.2-2.8 6.5-4.8 9.2-4.1 5.7-7.6 11.6-10.2 18.1-.5 1.1-.9 2.9-1.7 3.1-5.2 1.3-5.2 6.3-7.3 9.8-1.4 2.3-2.4 4.5-5.5 5.3-1.7.5-3.2 2.4-4.3 4-1.5 2.2-2.7 4.6-4 7.1-7.6-.9-10.9 5.6-15.5 9.5-5.2 4.3-7.3 10.8-9.6 16.8-1 2.7-2.3 4-4.6 4.9-6.5 2.4-11.2 7.4-16.1 11.9-1.7 1.6-4.1 3.6-1.8 6.5-2.7 2.2-5.2 4.5-8 6.5-3 2.1-6.1 4.1-9.3 5.7-5.7 2.6-11.6 4.6-17.2 7.4-4.1 2-7.7 5.2-12 7-8.2 3.4-16.6 6.4-25.1 9.3-7.7 2.6-15.7 4.4-23.3 7.1-13.9 4.9-27.6 10.8-42.3 12.9-5.8.8-11.8.4-17.7.7-15.8.9-31.7 1.9-47.5 2.8-6.1.3-12.3.4-18.4.5-5.4.1-10.7.6-16.2-.1-11.4-1.4-23-1.3-34.6 2 .3-3.4-1.6-3.6-4.1-3.5-7.1.3-14.3.4-21.4.6-13.6.3-26.8-2.3-40-4.7-7.8-1.4-15.7-2.9-23.5-4.3-10-1.8-20.1-3.3-30-5.5-6.3-1.4-12.6-3.5-18.7-5.7-6.3-2.3-12.3-5.3-18.5-7.8-11.6-4.6-22-11.6-32.4-18.3-6.1-3.9-12.5-7.5-18.5-11.7-8.3-5.8-16.5-11.9-24.5-18.2s-15.9-12.7-23.5-19.4c-4.7-4.1-9-8.8-13.4-13.4-10.7-11-20.5-22.7-29.5-35.1-6.1-8.5-13.2-16.1-18.9-24.8-5.9-9-10.6-18.8-16-28.2-2.7-4.7-5.9-9.1-8.9-13.6-.1-.2-.3-.3-.4-.5-5.8-12.7-13.8-24.3-17.3-38.1-1.2-4.9-1.7-10.2-3.9-14.7-5.5-11.1-6.2-23.1-8.4-34.9-.2-1.2-.5-2.4-1-3.5-4-8.5-4.2-17.5-3.9-26.5.1-3.7 0-7.4 0-11.2-2.1-1.1-3.9-2.5-6-3.1-11.6-3.7-20.3-11.8-29.4-19.5-1.3-1.1-2.4-2.9-3.1-4.5-3.3-7.2-7.4-14.1-6.8-22.6.2-2.5.7-4.2 2.9-5.5 1.8-1.1 3-3.3 4.8-4.4 6.2-3.6 12.4-7.5 20.2-6 7.3 1.5 13.3-1 18-6.7.5-.6 1.3-1.1 2-1.2 7.1-1.1 14-2 21.1.4 11.2 3.8 22.2 8.1 34.1 9.7 8.2 1.1 16.3 3.1 24.3 5.3 4 1.1 8.5 1.7 11.3 5.5.7.9 2 1.5 3.1 1.9 3.6 1.3 5.4 3.3 4.4 7.4-.3 1 .9 2.4 1.5 3.7.5 1.2 1.8 2.7 1.5 3.5-.9 2.2-.4 3.1 1.5 4.4 1.5 1 .4 5.8-1.1 7.6-3.1 3.6-8.2 5.5-9.9 10.5-.1.1-.3.3-.5.3-5.8-.2-8.3 6-13.5 7-5.2 1.1-10.3 2-15.5 3-1.8.4-3.7.5-5.2 1.3-3.2 1.9-6.4 3.3-10.2 3.8-2.2.3-4.1 2.6-6.4 4.2 3.4 10.3 6.2 20.1 9.7 29.5 4.1 11 8.5 21.9 10.2 33.7.7 4.7 3.4 9 5.1 13.5.9 2.5 1.5 5.1 2.6 7.5 1.3 2.9 3 5.6 4.6 8.4.8 1.4 1.7 2.8 2.5 4.2 2.3 3.6 4.6 7.2 6.8 10.9 1 1.6 2.1 3.1 2.6 4.8 1.7 6.3 5 11.6 9.2 16.4 1.6 1.8 2.8 4 3.9 6.2 2.8 5.2 5.4 10.6 8.2 15.8 4.1 7.6 8.6 14.9 14.7 21.1 2.3 2.3 4 5.2 6.1 7.7 3.5 4.2 6.6 8.6 11.5 11.5 3.3 1.9 5.5 5.9 7.9 9 1.6 2.1 3 4.4 4.4 6.6 4.3 7.2 10.2 12.6 17.9 15.9.2.1.4.2.5.3 6.5 8.1 16.6 10.6 24.9 15.8 1 .6 2.5 1.2 2.9 2.2 2.8 6.6 8.9 8 14.8 10.4 5 2 10.1 4.8 13.9 8.5 3 2.9 6.2 3.6 9.6 4.6 7.2 2.2 14.5 4.2 21.7 6.2 9.6 2.6 18.6 7.3 28.8 7.5.4 0 .9 0 1.2.2 10.2 5.3 21.1 4 31.8 3.2 6.5-.4 12.9-.6 19.3.5 8.4 1.4 16.9.5 25.3-.6 6.8-.9 13.5-3.3 20.3-4.4 4.6-.8 9.3-.6 14-.8 2.3-.1 4.7-.3 7-.6 6.9-1 13.7-2.1 20.5-3.1 16.2-2.2 32.3-4.3 48.5-6.5 3-.4 6-1.1 9-1.9 16.8-4.9 33.6-9.8 50.3-15 10.3-3.3 20.8-4 31.4-3.6 2.2.1 3.8-.1 5.5-1.6 10.2-8.6 21.5-15.2 33.4-21.3 9.5-4.8 19-10 26.9-17.3 1.8-1.6 3.5-3.5 4.9-5.5 6.9-10.4 13.7-20.8 18.2-32.5 1.6-4.3 2.2-8.9 4.6-12.9 1.2-2 1.6-4.6 2.8-6.6 3.3-5.4 6.9-10.6 10.4-15.9.9-1.4 1.6-2.9 2.2-4.4 2.8-7.6 5.4-15.3 8.2-22.9 1-2.8 2.3-5.5 3.2-8.3.7-2 .7-4.3 1.2-6.4.4-1.8.5-4.2 1.6-5.2 4.3-3.3 3.7-8.6 5.4-12.8 3-7.1 5.2-14.5 7.5-21.8 1.2-3.7 1.7-7.6 2.7-11.4.9-3.7 1.8-7.4 2.8-11.1.9-3.3 1.8-6.5 2.6-9.5-3.6-2.1-6.1-3.5-8.5-4.9-7.3-4.1-15-7.4-23.5-7.9-5.4-.3-10.5-.3-14.4-5.2-1.4-1.8-5.4-1-5.9-5.5 2.4-3.6 5.2-8 8.1-12.4 2.6 1.3 4.9 2.1 7.2-.3.7-.8 2.2-1 3.3-1.1 5.1-.5 10-2.9 15.4-1.7 1.4.3 3.3-1.3 4.9-2.3 4.6-2.7 9.1-5.5 13.7-8.3 8 4.4 15.8 1.4 23.1-1.4 9.3-3.5 18.4-2.7 27.8-1.7 3.4.4 6.8 1.3 10.2 2.2 4.7 1.2 9.1 1.9 14.2 1.2 7.5-1 14.8 1.4 20.8 6.9 2.3 2.1 2.6 3.8.9 6.7-3.1-2-6.3-3.9-10.4-6.6 2.2 9 7.9 13.9 13.3 19 2.4 2.2 5.1 4 7.5 6.1.2.2-.4 1.4-.8 2.7 3.9 2.5 8.6 4.5 9.9 9.9.7 2.9 2.7 4.6 5.3 4.3-.7 4.5-1.6 9-2.6 13.6z"/>
</svg>