<svg xmlns="http://www.w3.org/2000/svg" viewBox="0 0 1511.8 1511.8">
  <defs>
    <clipPath id="a" clipPathUnits="userSpaceOnUse">
      <path d="M0 1133.9h1133.9V0H0z"/>
    </clipPath>
  </defs>
  <g clip-path="url(#a)" transform="matrix(1.33333 0 0 -1.33333 0 1511.8)">
    <path d="M543.4 1113c3.6-1 7.4-2 11.2-2.2a30 30 0 0015-4.8 96.4 96.4 0 0134.3-14.2c2.7-.6 5.6-.7 8.5-.9 8.5-.3 17-.8 25.6-.8 3.2 0 6.4 1 9.6 1.6 8.8 1.8 17.5 4 26.3 5.5 10.1 1.6 20.3 2.4 30.4 3.6l14 1.3c.6 0 1.3-.1 1.8.2 6.2 4.2 13.3 2.6 20 3.2 8.2.6 16.4 0 24.5.5 19.2 1.3 37.6-3.1 55.9-7.8 11.2-3 36.1-13 33.7-13.7v-1c3.6-.7 7.1-1.3 10.6-2.3 8.2-2.5 16.8-4 24.3-8a186.7 186.7 0 0042-27.3l14-12.7c1-.9 2.2-1.9 2.7-3.1 3.3-7.3 6.4-14.7 9.6-22 1.5-3.5 3.2-7 4.8-10.4l12-25.5c4.3-8.4 8.5-16.8 13.2-25 1.8-3 4.6-5.7 7.2-8.2 4.2-4 8-8.2 10.3-13.5.8-1.6 2.4-2.9 3.7-4l18.9-16.7c9-7.8 16.5-17 23.3-26.8 7.7-11 15.5-22 23.5-32.9a145.6 145.6 0 0018.4-33.2c1.8-4.5 3.8-9 6.4-13.3 6.3-10.3 8-21.8 9.3-33.4a1836 1836 0 005.1-61.4c.8-17.6 5.6-34.3 10.2-51.1 2.5-9 4-18.4 5-27.8a463.9 463.9 0 00-1.5-89.8 80.1 80.1 0 01-1-25c3-20.5-3.7-38.8-12.7-56.6-4-8-8.9-15.7-12.8-23.8-6.5-13.4-12.5-27-18.7-40.7-2.1-4.6-4-9.4-6-14.1-3-7.2-3.3-14.8-3.5-22.4a51.5 51.5 0 00-9.4-25.5c-5.3-9-10.4-18-15.4-27.2-6.2-11.2-12.1-22.6-18.1-33.9-2.7-5-5.7-10-7.6-15.3a107 107 0 00-15.2-27.3c-5-6.6-9.1-13.9-13.6-21-8.7-13.9-19.3-26.2-30.6-38.1a316.2 316.2 0 00-33.7-30.2 231.3 231.3 0 00-44-26.4c-9-4.3-18.7-5.6-28.5-6.5-8.7-.8-17.3-2.3-25.6-5.3-2.8-1-5.2-3-7.9-4.4L812.6 86c-8.9-4.5-17.5-9.5-26.6-13.4-15-6.3-30.4-11.6-45.4-17.6-6.8-2.7-13.2-6.2-19.8-9.5A146.5 146.5 0 00686 32.8c-4.6-1-8.9-2.8-13.3-4.2a39.5 39.5 0 00-22-2.2c-3 .7-5.8.3-8.8-.5-4.5-1-9.2-.8-13.2-3.8-.8-.7-2.4-.7-3.5-.6-8.6 1-17-.5-25.4-1.7-12-1.8-24.2-.2-34.6 5.3-8 4.1-16.6 5.1-24.6 8.3-2.4 1-5.6 0-8.4.2-10.5.5-21 1.6-31.4 1.8-6.6.1-13.3-1-20-1.5l-31-1.8c-.7 0-1.3-.2-2 0-9.7 1.2-19.5 1.7-29 4.8-8.4 2.8-17 4.2-25.5 6.6-10 3-19.8 6.3-29.7 9.4a141 141 0 01-11.2 3.1c-12.6 2.9-24.1 8.7-35.9 13.8-11.8 5-23.5 10.2-35.1 15.4-3 1.3-5.7 3.1-8.5 4.7-1.4.8-2.7 1.7-4.2 2.4l-25 11.2a145 145 0 00-29.1 17.7c-3.5 2.7-7.3 5.2-10.8 8-2.5 2-4.6 4.5-7 6.6-2.3 2-4.5 4.7-7.2 5.5-5.5 1.6-8.5 6-12.5 9.3-4.2 3.3-8 7.1-12 10.4-7.8 6.3-13.2 14.6-19.4 22-1 1.1-1.2 2.6-1.8 4l-6.8 17.7c-.4.9-1.1 1.8-1.9 2.4-9.9 7.8-15 19-19.8 30a81 81 0 01-14.4 24.1c-5.1 5.4-8.3 11.4-11.6 17.6-1.7 3-4 5.7-5.7 8.7-7 12.4-13.8 25-21 37.4-4.3 7.6-9.3 14.8-14.2 22a100.8 100.8 0 00-13.3 24.7c-4.2 13-6.5 26.2-8.8 39.5-1.5 8.6-3.6 17.3-6.4 25.5a214.3 214.3 0 00-9.5 47.6c-1.2 11.8-2.3 23.6-5.2 35.2-2.1 8.7-3 17.8-1 26.9.5 2.1.7 4.4.7 6.7 0 10.4 3 20.2 5.4 30.1 2.5 10.7 7.1 21 6.8 32.3-.1 3.9-.6 7.8-.4 11.6.2 5.5.4 11 1.4 16.4 1.7 9.6 3.9 19.2 6 28.7 1.1 4.8 2.5 9.5 3.8 14.3 3.8 13.8 6.5 27.8 8.7 42A84.5 84.5 0 0047 755.5c5.8 10.8 12.1 21.4 17.2 32.6 3.8 8.5 5.9 17.9 9 26.7 1.7 4.8 3.5 9.8 6.3 13.9 4.5 6.4 6.2 13.7 8.4 21 1.7 5.4 3.1 11 4.8 16.4.4 1.3 1.4 2.4 2 3.6.6 1.2 1.6 2.5 1.5 3.6-.5 4 1.4 7 3.7 10 3.5 4.5 6.7 9.2 9.7 14 1.1 1.9 2.1 4.3 1.8 6.3-.7 4.7 2.4 6.6 5.2 9 2.8 2.3 6.9 3.4 7.9 7.8.2 1 2.2 1.7 3.4 2.5 7.2 4.5 14.3 9.5 17.3 17.6 2.8 7.4 8 11.2 14.4 14.7 3 1.6 5.8 4 7.8 6.7 6.8 9 15.2 16 23.7 23 10.4 8.5 21.2 16.6 31.7 25 7 5.9 13.6 12.4 20.8 18 4.9 4 10.5 7.1 15.7 10.7 6.8 4.8 13.5 9.9 20.5 14.4 6.2 4 12.8 7.2 19 10.9 5.9 3.4 11.4 7.4 17.4 10.4A233.4 233.4 0 00368 1094c15.3 3.6 30.6 6.8 46 10 2 .5 4 .4 6 .4a161 161 0 0134.6 4.2c16.3 3.4 32.7 7.5 49.7 5.7 7-.8 14.2-1.4 21.3-2 2.1-.3 12.8 2.2 17.8.8M640 49c8.5.1 15.7-.1 22.3 3.4 1.7 1 4 1.2 6 1.3 9.2.2 17.4 3.8 25.6 7.5 13 5.9 25.9 12.2 39.2 17.1 18 6.7 35.8 13.7 52.7 22.8a190 190 0 0036.6 15c3.2 1 6.4 1.6 9.6 2.1 13 2.3 26.4 2 38.3 9.2 9.8 5.8 20.3 10.4 29.8 16.4 7.2 4.6 13.5 10.5 20.2 15.8 2.4 1.9 5.1 3.4 7.2 5.5 5 5 9.5 10.6 14.6 15.5a181 181 0 0124.6 30.2c4.7 6.8 9 14 13.3 21.1 4.3 7.3 8.6 14.8 12.5 22.3 4.4 8.3 8.4 16.9 12.7 25.2 3.5 6.9 7.2 13.6 11 20.3 4.5 8.4 8.6 17.2 14 25 5 7.6 8 15.8 11.4 24 .7 1.9.6 4 .8 6 .5 3.8.1 8 1.4 11.5 3.9 10.5 8.3 20.7 12.5 31l9.5 23.8c2.8 6.7 5.4 13.6 8.5 20.2 3.3 7 7.3 13.7 10.6 20.7 1.9 3.8 2.9 8 4.6 11.8 4.6 10 7.3 20.1 6.6 31.3-.6 8.8.7 17.6 1 26.4.4 6.4 3 12.4 2.6 19-.6 7.3.4 14.7.8 22 .3 5.2 0 10.5 1.2 15.4 1.9 8.1 1.4 16.2 1.2 24.4-.2 5-2.3 10.2-1.7 15 1 8.3-2.6 15.3-4.2 22.9-2.3 10.8-5.5 21.4-7.1 32.3-1.6 10.1-1.4 20.5-2.3 30.7-1.4 15.5-3.2 31-4.5 46.5-1 11.1-4.4 21.2-10.4 30.5-1.1 1.6-1.8 3.6-2.5 5.5-5 13.1-11.5 25.3-20.2 36.3-5.2 6.6-9.4 13.9-14.4 20.5-6.9 9.2-13 19-21.6 26.7-9.8 9-19.3 18.2-29.3 27A104.4 104.4 0 00957 943c-2.5 5.7-5.2 11.2-7.7 16.8-6.8 14.7-13.4 29.5-20.2 44.1-4.6 9.7-9 19.5-18.2 25.8-6.6 4.5-13.2 9-20.2 12.6a98.3 98.3 0 01-23.5 8.7c-8 1.8-16.2 3.9-23.6 8-5.4 3.2-10.8 6.5-17 8-5.3 1.2-10 4.6-15.3 6-11.5 2.8-23 5.2-34.7 7.1-9.4 1.6-18.8 3.3-28.5 2.6-13-1-26-1.3-39-2.4a311.4 311.4 0 01-47.2-6.6c-8.9-2.1-18.1-2.9-26.8-5.5-11.1-3.3-22-3.6-33.3-2.1-2.9.3-6 1-8.6.2-6.8-2-12.9-.2-18.8 2.8-7 3.4-13.7 7.3-20.6 10.7a24.7 24.7 0 01-8.5 3c-6.8.6-13.3 1.8-19.6 4.6-1.2.5-2.6 1-4 1.2-10.6 1.1-21.1 2.3-31.7 3.2-5.2.4-10.6 1-15.8.2-8-1.2-16-3.4-23.9-5.3-12.9-3.3-25.9-5.5-39.3-5.4-6.2 0-12.4-.3-18.6-2.2-7.2-2.2-14.5-4.7-22-5.4a97.5 97.5 0 01-40-14.1c-7-4-13.8-8.6-20.7-13-6.2-3.8-12.6-7.4-18.5-11.6-7.5-5.4-14.5-11.3-21.8-16.9-2.3-1.7-4.9-3-7-4.8-8-6.7-15.8-13.7-23.8-20.4-7.8-6.5-15.7-13-23.7-19.3-11.4-9.2-20.6-20.5-30.3-31.2-4.4-4.9-9.2-9.4-13.8-14-4-4-8-7.6-11.8-11.6-4.2-4.5-7.7-9.6-12.1-13.8-4-3.8-6.7-8.1-8.6-13.2-1.8-5-3.9-10-6.2-14.7-3.2-6.4-6.7-12.6-10-19-4.3-8.9-5.2-18.8-8.3-28.1-2.1-6.2-3.8-12.8-7.3-18.2-3.7-5.7-5.3-11.8-7.4-18-3-8.8-6-17.8-10-26.3-3.8-8.5-9-16.5-13.2-24.8a99 99 0 01-7-16.4c-2-6.8-3-14-4.6-21-1.3-5.7-2.6-11.6-4.4-17.2-1.3-4.5-3.7-8.7-4.7-13.2-.8-3.5-.8-7-4.8-8.4-.6-.2-1.1-1.2-1.3-2l-3.1-11c-.8-2.6-2-5-2.7-7.5-.6-2.6-1-5.4-1.2-8.2-.1-1.6 1-3.2.9-4.7-1-7.3.7-14.7-1-22-1.6-6.8-1.5-13.8-2.6-20.7-1.8-10-4.1-20-6-30a72.9 72.9 0 010-30.5c2-8.7 3.5-17.6 5-26.5l3.4-24.2 1-8.5c1.2-6.2 1.8-12.6 3.8-18.6 4-12.2 8.3-24.3 10.4-37 1.6-10.1 2.7-20.3 4.7-30.3 1-5.2 2.3-10.4 5.5-15.2 3-4.5 7.2-9 5.8-15.5-.2-1 1-2.5 1.8-3.7 5.6-8.7 12-17.1 16.7-26.4a273.9 273.9 0 0120.3-34.1c1.4-2 3-4 4.2-6 2.8-5 5-10.4 8.3-15a307 307 0 0021.6-34.9c3-5.7 7.5-10.5 11.1-15.8 3.8-5.5 8.2-10.5 10.8-16.8.7-1.6 2.3-3 3.5-4.3 3-3.2 6-6.5 9.2-9.7 4.8-5 9.5-10.1 14.5-14.8 5.9-5.4 12.8-9.8 17.9-15.8 7.7-9 17.7-15 27-21.9 7.4-5.6 16.4-7.8 24.7-11.8 4.9-2.3 9.7-5 14.6-7.3 4.8-2.1 8.5-5.8 13.6-7.8 10.2-4 20-9 30-13.4 9.5-4.2 18.6-9.2 28.9-11.5 6-1.3 11.7-3.3 17.6-5.2 4.8-1.5 9.5-3.4 14.4-4.8 12.6-3.5 25.2-6.8 37.8-10.1 7.1-2 14-4.4 21.3-5.3a96.4 96.4 0 0128.9 0c2.6.4 5.3.8 7.9.7 13.4-.3 26.9-.7 40.3-1.2 4.7-.2 9.3-.8 14-1 5.4-.3 10.9.3 16.3-.4s11.1-1.5 16-3.8a48 48 0 0126-4.8c4.7.5 9.6.1 14.4.2 5 0 10.6-1 15.1.7a47 47 0 0018.4 3"/>
    <path d="M884 503l-8.6 4.9c-7.3 4.1-15 7.4-23.4 7.9-5.4.3-10.6.3-14.4 5.2-1.4 1.8-5.4 1-6 5.5l8.2 12.4c2.6-1.3 4.9-2.2 7.1.3.7.8 2.2 1 3.3 1.1 5.1.5 10 3 15.4 1.7 1.4-.4 3.3 1.3 4.9 2.2l13.6 8.3c8-4.4 15.9-1.4 23.2 1.4a57.9 57.9 0 0027.8 1.7c3.4-.4 6.8-1.3 10.1-2.2 4.7-1.2 9.1-1.9 14.3-1.2 7.5 1 14.8-1.4 20.8-7 2.3-2 2.5-3.8.8-6.6l-10.4 6.6c2.3-9 7.9-14 13.3-19 2.3-2.2 5-4 7.5-6 .3-.3-.4-1.5-.8-2.8 3.9-2.5 8.6-4.5 9.9-9.8.7-3 2.6-4.6 5.3-4.3-1-4.6-1.9-9.2-3-13.7-.3-1.7-.5-3.9-1.6-4.8a32.5 32.5 0 00-19.4-7.4c-13-.3-25.5 1.3-37.4 7.4-3 1.6-7 1-10.8 1.5l-2.6-11.4 7.1 3.2c-.1-1.4-.1-2.4-.4-3.4-2-7.8-5.4-15.2-5.8-23.6-.2-6.8-2.4-13.6-4-20.3a99.7 99.7 0 01-2.4-20.2c0-.4.3-.9.2-1.2-4-9.9-3.9-21-8.5-30.7-1.3-2.8-3.7-5.5-2.5-9.1 0-.3-.2-.8-.4-1-4.8-4.5-5.4-11-7.9-16.5-1.4-3.2-2.8-6.5-4.8-9.3a84 84 0 01-10.2-18c-.5-1.2-1-3-1.7-3.2-5.2-1.3-5.2-6.4-7.3-9.8-1.4-2.3-2.4-4.5-5.5-5.3-1.7-.4-3.2-2.4-4.3-4-1.6-2.2-2.7-4.6-4-7.1-7.7 1-11-5.6-15.6-9.5-5.2-4.3-7.3-10.8-9.6-16.8-1-2.7-2.3-4-4.7-4.9-6.5-2.3-11.2-7.4-16.1-11.9-1.7-1.6-4-3.6-1.8-6.5-2.6-2.2-5.2-4.5-8-6.5-3-2.1-6-4.2-9.3-5.7-5.6-2.6-11.6-4.6-17.2-7.3-4.1-2-7.7-5.3-12-7-8.2-3.5-16.6-6.5-25-9.3-7.8-2.6-15.7-4.4-23.4-7.1-13.9-5-27.6-10.8-42.3-12.9-5.8-.8-11.8-.3-17.7-.7-15.8-.8-31.6-1.9-47.5-2.7-6.1-.4-12.2-.4-18.4-.6-5.3 0-10.6-.5-16.1.1a87.4 87.4 0 01-34.6-2c.3 3.4-1.6 3.7-4 3.6l-21.5-.6c-13.5-.4-26.7 2.3-40 4.7l-23.5 4.3c-10 1.8-20 3.3-30 5.5-6.3 1.3-12.5 3.4-18.6 5.7-6.3 2.3-12.3 5.3-18.6 7.8-11.6 4.6-22 11.5-32.4 18.3-6.1 3.9-12.5 7.5-18.5 11.7a571.5 571.5 0 00-48 37.6c-4.8 4.2-9 8.9-13.4 13.4a309.7 309.7 0 00-29.5 35.2c-6 8.4-13.2 16.1-19 24.8-5.9 9-10.5 18.8-16 28.1-2.7 4.7-5.8 9.1-8.8 13.7l-.4.4c-5.8 12.7-13.8 24.4-17.3 38.1-1.3 5-1.8 10.3-4 14.7-5.4 11.1-6.1 23.2-8.3 35-.2 1.1-.5 2.4-1 3.5-4 8.4-4.2 17.4-4 26.5.2 3.7.1 7.4.1 11.2-2 1.1-4 2.5-6 3.2-11.7 3.7-20.4 11.8-29.4 19.4a12.9 12.9 0 00-3.1 4.5c-3.3 7.2-7.4 14.1-6.8 22.6.2 2.5.7 4.2 3 5.5 1.7 1.2 2.9 3.4 4.7 4.4 6.2 3.6 12.4 7.6 20.2 6 7.3-1.5 13.3 1 18 6.7.5.6 1.4 1 2 1.2 7.1 1 14.1 2 21.2-.4 11.2-3.8 22.2-8.1 34.1-9.8 8.2-1 16.3-3 24.3-5.2 4-1 8.4-1.7 11.3-5.5.7-.9 2-1.5 3-1.9 3.7-1.2 5.5-3.2 4.5-7.4-.3-1 1-2.4 1.5-3.7.5-1.1 1.8-2.6 1.4-3.4-.9-2.2-.4-3.2 1.5-4.5 1.5-1 .5-5.8-1-7.6-3.2-3.6-8.2-5.5-10-10.5l-.4-.3c-5.9.2-8.4-6-13.5-7l-15.5-3c-1.8-.4-3.7-.5-5.2-1.4a27.2 27.2 0 00-10.2-3.8c-2.2-.3-4.1-2.6-6.4-4.2 3.4-10.3 6.2-20 9.8-29.5 4-11 8.4-22 10.2-33.7.7-4.7 3.4-9 5-13.6 1-2.5 1.6-5 2.7-7.5 1.4-2.9 3-5.6 4.6-8.4l2.5-4.2 6.9-10.8c1-1.6 2-3.1 2.6-4.8 1.7-6.3 5-11.6 9.2-16.5 1.6-1.8 2.8-4 4-6.1 2.7-5.3 5.3-10.6 8.1-15.8a93 93 0 0114.7-21.2c2.3-2.3 4-5.1 6-7.7 3.5-4.2 6.6-8.5 11.6-11.5 3.3-1.9 5.5-5.8 8-9 1.6-2 3-4.4 4.4-6.6a38.5 38.5 0 0117.9-16c.1 0 .4-.1.5-.3 6.5-8 16.5-10.6 24.9-15.8 1-.6 2.5-1.2 2.9-2.1 2.8-6.7 8.9-8 14.8-10.4 5-2 10-4.8 13.8-8.5 3-3 6.2-3.6 9.6-4.6 7.2-2.2 14.5-4.2 21.7-6.2 9.6-2.6 18.6-7.3 28.8-7.5.4 0 .9 0 1.2-.2 10.2-5.2 21.1-4 31.9-3.2 6.5.4 12.8.6 19.3-.5 8.4-1.4 17-.5 25.3.7 6.8.9 13.4 3.3 20.2 4.4 4.6.8 9.3.6 14 .9 2.3.1 4.7.2 7 .6 6.9 1 13.7 2.1 20.6 3l48.5 6.5c3 .4 6 1 9 2 16.7 4.9 33.5 9.7 50.2 15 10.3 3.2 20.8 4 31.4 3.6 2.3 0 3.8.1 5.5 1.6a170.6 170.6 0 0033.4 21.3c9.5 4.8 19 10 27 17.3 1.8 1.6 3.5 3.5 4.8 5.5a169.3 169.3 0 0118.2 32.4c1.6 4.3 2.3 9 4.7 13 1.2 2 1.5 4.5 2.8 6.5 3.3 5.4 6.9 10.6 10.3 16 .9 1.4 1.6 2.9 2.2 4.4l8.2 23c1 2.7 2.3 5.4 3.2 8.2.7 2 .8 4.3 1.3 6.4.4 1.8.4 4.2 1.6 5.1 4.3 3.4 3.7 8.6 5.4 12.8 3 7 5.3 14.5 7.6 21.8 1.2 3.7 1.7 7.6 2.6 11.4l2.8 11 2.7 9.6"/>
    <path d="M442.8 888.6l9 5.6c5.8-1.3 5.8-1.3 7.8 3 .4 0 .9.4 1.1.3 6.6-3 12.6 1 18.8 1.5 1.4 0 3 .7 4.2.2a19 19 0 0113-.7c4 1 6.3-.6 8.3-3.4 5.5-7.6 11.2-15.2 16.2-23.1 2-3.2 2.9-7.2 3.5-11 1.4-7.4 2.5-14.9 3.3-22.4 1.2-9.9 2-19.9 3.1-29.8.8-6.7.3-13.4 2.4-20 1.5-4.3 1.2-9.3 1.4-14l1.3-30c0-1.1 0-2.2.5-3 3-6 3-12.2 3.1-18.6 0-6.6 1.2-13.2.7-19.6-1-10.9-3-21.6-4.3-32.4-1-9.3-1.6-18.7-2.8-28a170.2 170.2 0 00-10.3-40.4c-3.6-9.3-6.6-18.9-9.8-28.4a49 49 0 00-22.5-27.2c-3-1.8-7.4-1.4-11.1-1.5-2.7-.1-5.3-.2-7.6-1.9-2.2-1.6-4.4-1.4-6.9-.2a17 17 0 01-7 1.7c-1.2 1.4-2.3 2.8-3.7 4-.9.7-2.6 1.8-3.1 1.4-3.6-2.5-5 1-7.2 2.3-6.2 4-10.7 9.8-15.8 15a38 38 0 00-9.9 21.3 287.2 287.2 0 00-2 65c.3 4.2.1 8.7-.8 12.8a99.3 99.3 0 00-1.4 32.4c2.1 21 5.7 41.7 9.4 62.5.2.7.8 1.8.5 2.2-3 5.3-.5 10.5 0 15.7a929 929 0 004.4 31.7c1.4 8.9 2.7 17.9 5.1 26.5 2.8 10 4.5 20 5 30.2.2 5.5.6 11 3.2 16.2.7 1.4.7 3 .9 4M694 881.5l4.4 9.6c.3.7.7 1.9 1.2 2 5 1 6 6.3 9.6 9.2 1.7-.3 3.5-.8 5.3-1 1.2-.2 3.1-.4 3.4.2 1.7 3.3 3.8 1.2 6 1.3 3.7.2 6.6-.5 9.8-2.3 1.6-1 4.2-.2 6.4 0 5 .3 9.2-.7 12-5.6 1-1.8 3-3.4 5-4.1 3-1.1 4.3-2.3 4.8-6 .9-6.5 3.7-12.8 4.7-19.4 2-13.3 5.7-26.4 4.4-40.2-.9-9.4-.7-18.8-.9-28.2 0-1.9.1-3.8.5-5.6 3-15.6 4.2-31.4 3-47.2-.3-5.6 2-10.5 1.7-16-.4-8.3-1-16.7-.7-25 .4-9.2-2.2-17.7-3.4-26.5-.7-4.7-.5-9.6-1.8-14.3-2.2-7.9-4-16-6.4-23.7-2.6-8.1-5.8-16-8.9-24-2.5-6.7-4.7-13.5-7.8-20-5.9-11.8-12.2-23.5-18.5-35.2-1.4-2.6-3.2-5.1-6.5-6-1.5-.4-2.7-1.8-4.5-3l2-2.3c-1.1-2.7-3.3-2.4-5.1-1.4-4.9 2.6-10.3.5-15.2 2.1-2 .7-4.4 1-6 2.3-2.8 2.3-5.7 4-9 5.5-4.9 2.2-9.2 6-13.2 9.6a29 29 0 00-9.5 18.7 56.5 56.5 0 01-4.8 15.1c-3.2 7.3-5 14.8-5.8 22.5-1 9.7-3.5 19.3-3 29.2.7 16.6 1.1 33.2 2.1 49.8.8 11.4 2 22.9 3.5 34.2 1.2 8.5 3.5 16.8 5 25.2 2 12 4.1 24.2 5.7 36.4 2.5 18.5 5.5 36.8 12.5 54.3l7.3 18.9c.4 1.1 1 2.3 1 3.5.8 6.2 2.3 7.5 8.4 7.2l1.3.2"/>
  </g>
</svg>