<svg xmlns="http://www.w3.org/2000/svg" fill="none" viewBox="0 0 295 50">
    <path fill="currentColor" fill-rule="evenodd" d="M295 0H0v50h295V0zM34.64 39l-.66-3.32a9.83 9.83 0 01-3.8 3.12 11 11 0 01-4.23.86 15.4 15.4 0 01-6.07-1.15 13.23 13.23 0 01-4.5-3.24 14.29 14.29 0 01-2.84-4.8 17.86 17.86 0 01-.98-5.98c0-2.2.33-4.21.98-6.07.66-1.89 1.6-3.53 2.83-4.92a12.98 12.98 0 014.51-3.28c1.8-.8 3.83-1.2 6.07-1.2 1.5 0 2.95.24 4.35.7 1.42.44 2.69 1.1 3.8 1.97a10.76 10.76 0 014.19 7.67h-6.15a6.16 6.16 0 00-2.21-3.69 6.44 6.44 0 00-3.98-1.23c-1.45 0-2.68.29-3.7.86a6.73 6.73 0 00-2.45 2.26c-.63.93-1.1 2-1.4 3.2a16.79 16.79 0 000 7.33c.3 1.15.77 2.2 1.4 3.12a7.23 7.23 0 002.46 2.26c1.01.54 2.24.81 3.69.81 2.13 0 3.77-.53 4.92-1.6 1.17-1.09 1.86-2.66 2.05-4.7h-6.48v-4.8h12.3V39h-4.1zM54.6 16.94l-3.81 10.74h7.58l-3.69-10.74h-.08zM40.33 39L51.4 9.73H58L68.95 39h-6.68l-2.22-6.52H49.11L46.8 39h-6.48zm30.61 0V9.73h6.4l12.21 19.63h.09V9.73h6.02V39h-6.43L77.05 19.4h-.08V39h-6.03zm29.86 0V9.73h6.4l12.21 19.63h.08V9.73h6.03V39h-6.44l-12.17-19.6h-.09V39h-6.02zm29.85 0V9.73h6.44V39h-6.44zm20.6-9.72h6.23a4.94 4.94 0 001.93 4.18c.6.41 1.3.73 2.09.95.79.19 1.6.29 2.46.29.57 0 1.19-.05 1.84-.13.66-.1 1.27-.3 1.85-.57a4.13 4.13 0 001.43-1.1c.38-.5.57-1.12.57-1.85 0-.8-.25-1.44-.77-1.93-.5-.5-1.15-.9-1.97-1.23-.82-.33-1.75-.62-2.79-.86a76.84 76.84 0 01-6.36-1.8 11.47 11.47 0 01-2.78-1.56 7.54 7.54 0 01-2.01-2.34c-.5-.96-.74-2.1-.74-3.44 0-1.5.31-2.8.94-3.9a8.87 8.87 0 012.55-2.79 11 11 0 013.52-1.64 15 15 0 013.94-.53c1.53 0 2.99.18 4.38.53 1.43.33 2.68.88 3.78 1.64a8.17 8.17 0 012.58 2.95c.66 1.18.98 2.61.98 4.3h-6.23a4.98 4.98 0 00-.57-2.16 3.47 3.47 0 00-1.23-1.36 5.29 5.29 0 00-1.8-.7c-.66-.13-1.39-.2-2.18-.2-.52 0-1.04.06-1.56.17a3.66 3.66 0 00-2.46 1.6c-.27.4-.4.92-.4 1.55 0 .58.1 1.04.32 1.4.22.35.64.68 1.27.98.66.3 1.54.6 2.67.9 1.14.3 2.63.69 4.47 1.15.54.1 1.3.31 2.25.61.98.28 1.95.73 2.91 1.36a8.41 8.41 0 012.46 2.54 6.97 6.97 0 011.07 4.02c0 1.34-.26 2.58-.78 3.73a8.19 8.19 0 01-2.34 3 11.1 11.1 0 01-3.81 1.92c-1.5.46-3.25.7-5.25.7-1.61 0-3.18-.2-4.72-.62-1.5-.38-2.84-1-4.01-1.84a9.3 9.3 0 01-2.75-3.24 9.68 9.68 0 01-.98-4.68zm34.37-14.55v8.77h5c.74 0 1.45-.05 2.13-.16.69-.11 1.29-.32 1.8-.62.53-.32.94-.78 1.24-1.35.33-.57.5-1.33.5-2.26 0-.92-.17-1.68-.5-2.25a3.18 3.18 0 00-1.23-1.31 4.74 4.74 0 00-1.8-.66c-.69-.1-1.4-.16-2.14-.16h-5zM179.18 39V9.73h13.2c1.84 0 3.4.27 4.68.82a8.34 8.34 0 013.12 2.09c.82.87 1.4 1.87 1.76 2.99a10.7 10.7 0 010 6.97 7.75 7.75 0 01-1.76 3 8.75 8.75 0 01-3.12 2.13c-1.28.51-2.84.77-4.67.77h-6.77V39h-6.44zm34.97-22.06l-3.81 10.74h7.58l-3.69-10.74h-.08zM199.88 39l11.07-29.27h6.6L228.5 39h-6.69l-2.2-6.52h-10.96l-2.3 6.52h-6.47zm56.36-19.43H250c-.1-.74-.35-1.41-.73-2.01a6.34 6.34 0 00-3.4-2.7 6.23 6.23 0 00-2.26-.42c-1.45 0-2.68.29-3.7.86a6.73 6.73 0 00-2.45 2.26c-.63.93-1.1 2-1.4 3.2a16.8 16.8 0 000 7.33c.3 1.15.77 2.2 1.4 3.12a7.24 7.24 0 002.46 2.26c1.01.54 2.24.81 3.69.81 1.97 0 3.5-.6 4.6-1.8a8.27 8.27 0 002.04-4.75h6.23a14.89 14.89 0 01-1.27 4.96 11.5 11.5 0 01-6.64 6.15c-1.5.54-3.16.82-4.96.82a15.4 15.4 0 01-6.07-1.15 13.23 13.23 0 01-4.5-3.24 14.29 14.29 0 01-2.84-4.8 17.86 17.86 0 01-.98-5.98c0-2.2.33-4.21.98-6.07.66-1.89 1.6-3.53 2.83-4.92a12.98 12.98 0 014.51-3.28c1.8-.8 3.83-1.2 6.07-1.2 1.61 0 3.13.24 4.55.7a11.86 11.86 0 016.68 5.34 11.8 11.8 0 011.4 4.5zm4.1 19.43V9.73h21.9v5.4h-15.46v6.28h14.19v5h-14.19v7.18h15.79V39h-22.22z" clip-rule="evenodd"/>
</svg>